<svg width="20" height="20" viewBox="0 0 20 20" fill="none" xmlns="http://www.w3.org/2000/svg">
<path d="M0.718774 0.718896C1.07039 0.367388 1.54722 0.169922 2.0444 0.169922C2.54158 0.169922 3.01841 0.367388 3.37002 0.718896L10 7.3489L16.63 0.718896C16.9837 0.37735 17.4573 0.188361 17.9489 0.192633C18.4405 0.196905 18.9108 0.394096 19.2584 0.741737C19.6061 1.08938 19.8033 1.55965 19.8075 2.05127C19.8118 2.54289 19.6228 3.01652 19.2813 3.37015L12.6513 10.0001L19.2813 16.6301C19.6228 16.9838 19.8118 17.4574 19.8075 17.949C19.8033 18.4406 19.6061 18.9109 19.2584 19.2586C18.9108 19.6062 18.4405 19.8034 17.9489 19.8077C17.4573 19.8119 16.9837 19.6229 16.63 19.2814L10 12.6514L3.37002 19.2814C3.0164 19.6229 2.54277 19.8119 2.05115 19.8077C1.55953 19.8034 1.08925 19.6062 0.741615 19.2586C0.393974 18.9109 0.196783 18.4406 0.192511 17.949C0.188238 17.4574 0.377228 16.9838 0.718774 16.6301L7.34877 10.0001L0.718774 3.37015C0.367266 3.01853 0.1698 2.5417 0.1698 2.04452C0.1698 1.54734 0.367266 1.07051 0.718774 0.718896Z" fill="white"/>
</svg>
